<svg xmlns="http://www.w3.org/2000/svg" version="1.1" xmlns:xlink="http://www.w3.org/1999/xlink" xmlns:svgjs="http://svgjs.dev/svgjs" width="1500" height="1807" viewBox="0 0 1500 1807"><g transform="matrix(1,0,0,1,-1.4845405179676163,0.731578947368348)"><svg viewBox="0 0 205 247" data-background-color="#ffffff" preserveAspectRatio="xMidYMid meet" height="1807" width="1500" xmlns="http://www.w3.org/2000/svg" xmlns:xlink="http://www.w3.org/1999/xlink"><g id="tight-bounds" transform="matrix(1,0,0,1,0.20288720412224848,-0.09999999999999432)"><svg viewBox="0 0 204.59422559175547 247.2" height="247.2" width="204.59422559175547"><g><svg viewBox="0 0 395.52 477.8851588660864" height="247.2" width="204.59422559175547"><g transform="matrix(1,0,0,1,0,303.58225349069767)"><svg viewBox="0 0 395.52 174.3029053753887" height="174.3029053753887" width="395.52"><g id="textblocktransform"><svg viewBox="0 0 395.52 174.3029053753887" height="174.3029053753887" width="395.52" id="textblock"><g><svg viewBox="0 0 395.52 174.3029053753887" height="174.3029053753887" width="395.52"><g transform="matrix(1,0,0,1,0,0)"><svg width="395.52" viewBox="2.8 -37.5 112.54 49.6" height="174.3029053753887" data-palette-color="#ed2647"><path d="M13.45-25Q16.4-25 18.63-23.33 20.85-21.65 22.03-18.75 23.2-15.85 23.2-12.25L23.2-12.25Q23.2-6.65 20.65-3.08 18.1 0.5 13.45 0.5L13.45 0.5Q11.55 0.5 9.93-0.18 8.3-0.85 7.15-2.15L7.15-2.15 7.15 12.1 2.8 12.1 2.8-24.5 6.15-24.5 6.55-21.55Q9.2-25 13.45-25L13.45-25ZM12.65-3.35Q15.5-3.35 17.13-5.7 18.75-8.05 18.75-12.25L18.75-12.25Q18.75-16.4 17.13-18.75 15.5-21.1 12.65-21.1L12.65-21.1Q11.15-21.1 9.75-20.1 8.35-19.1 7.48-17.1 6.6-15.1 6.6-12.25L6.6-12.25Q6.6-9.3 7.48-7.3 8.35-5.3 9.73-4.33 11.1-3.35 12.65-3.35L12.65-3.35ZM32.55 0.5Q29.75 0.5 28.4-1.2 27.05-2.9 27.05-5.4L27.05-5.4 27.05-37.5 31.4-37.5 31.4-8Q31.4-5.8 31.62-4.78 31.85-3.75 32.5-3.4 33.15-3.05 34.6-3.05L34.6-3.05 34.05 0.5 32.55 0.5ZM43.3 0.5Q40.5 0.5 38.7-1.5 36.9-3.5 36.9-6.6L36.9-6.6Q36.9-11.2 40.75-13.23 44.59-15.25 49.34-15.35L49.34-15.35Q49.34-18.55 48.4-19.8 47.45-21.05 45.2-21.05L45.2-21.05Q42.3-21.05 39.3-18.8L39.3-18.8 38.74-22.45Q41.9-25 46.05-25L46.05-25Q50-25 51.89-22.73 53.8-20.45 53.8-15.4L53.8-15.4 53.8-8.25Q53.8-5.4 54.2-4.23 54.59-3.05 55.95-3.05L55.95-3.05 56.5-3.05 55.95 0.5 55 0.5Q52.7 0.5 51.59-0.35 50.5-1.2 49.8-3.1L49.8-3.1Q48.65-1.45 46.95-0.48 45.25 0.5 43.3 0.5L43.3 0.5ZM44.65-3.05Q45.84-3.05 47.15-3.98 48.45-4.9 49.34-6.4L49.34-6.4 49.34-12.25Q45.5-12.05 43.5-10.78 41.5-9.5 41.5-6.85L41.5-6.85Q41.5-3.05 44.65-3.05L44.65-3.05ZM69.99 0.5Q64.39 0.5 61.49-3.03 58.59-6.55 58.59-12.1L58.59-12.1Q58.59-17.85 61.49-21.43 64.39-25 70.09-25L70.09-25Q73.14-25 75.54-23.75L75.54-23.75 74.84-19.9Q72.59-21.1 70.14-21.1L70.14-21.1Q66.79-21.1 64.92-18.78 63.04-16.45 63.04-12.3L63.04-12.3Q63.04-8.15 64.97-5.75 66.89-3.35 70.29-3.35L70.29-3.35Q72.89-3.35 74.89-4.55L74.89-4.55 75.49-0.65Q74.49-0.15 72.99 0.18 71.49 0.5 69.99 0.5L69.99 0.5ZM89.24 0.5Q85.54 0.5 82.92-1.23 80.29-2.95 78.97-5.9 77.64-8.85 77.64-12.45L77.64-12.45Q77.64-15.9 78.87-18.78 80.09-21.65 82.42-23.33 84.74-25 87.94-25L87.94-25Q92.04-25 94.62-22.25 97.19-19.5 97.19-14.65L97.19-14.65Q97.19-13.8 96.99-12.3L96.99-12.3 82.09-12.3Q82.24-7.95 84.27-5.7 86.29-3.45 89.54-3.45L89.54-3.45Q91.09-3.45 92.82-3.83 94.54-4.2 95.84-4.9L95.84-4.9 96.24-1Q93.49 0.5 89.24 0.5L89.24 0.5ZM82.29-15.35L92.74-15.35Q92.74-17.85 91.52-19.43 90.29-21 87.99-21L87.99-21Q85.74-21 84.27-19.6 82.79-18.2 82.29-15.35L82.29-15.35ZM107.34 0.5Q103.04 0.5 99.89-1.5L99.89-1.5 100.44-5.9Q103.64-3.4 107.04-3.4L107.04-3.4Q108.84-3.4 109.86-4.15 110.89-4.9 110.89-6.35L110.89-6.35Q110.89-7.45 110.41-8.15 109.94-8.85 108.84-9.5 107.74-10.15 105.44-11.2L105.44-11.2Q102.74-12.45 101.49-14.05 100.24-15.65 100.24-18.2L100.24-18.2Q100.24-21.2 102.34-23.1 104.44-25 107.99-25L107.99-25Q111.59-25 114.29-23.4L114.29-23.4 113.74-19.35Q112.39-20.25 111.19-20.68 109.99-21.1 108.34-21.1L108.34-21.1Q106.59-21.1 105.59-20.35 104.59-19.6 104.59-18.25L104.59-18.25Q104.59-16.9 105.46-16.2 106.34-15.5 108.89-14.35L108.89-14.35Q112.44-12.75 113.89-11.13 115.34-9.5 115.34-6.85L115.34-6.85Q115.34-3.4 113.19-1.45 111.04 0.5 107.34 0.5L107.34 0.5Z" opacity="1" transform="matrix(1,0,0,1,0,0)" fill="#ed2647" class="wordmark-text-0" data-fill-palette-color="primary" id="text-0"></path></svg></g></svg></g></svg></g></svg></g><g transform="matrix(1,0,0,1,87.11760594405143,0)"><svg viewBox="0 0 221.28478811189711 221.28478811189711" height="221.28478811189711" width="221.28478811189711"><g><svg></svg></g><g id="icon-0"><svg viewBox="0 0 221.28478811189711 221.28478811189711" height="221.28478811189711" width="221.28478811189711"><g><path d="M0 110.642c0-61.106 49.536-110.642 110.642-110.642 61.106 0 110.642 49.536 110.643 110.642 0 61.106-49.536 110.642-110.643 110.643-61.106 0-110.642-49.536-110.642-110.643zM110.642 205.566c52.425 0 94.924-42.499 94.924-94.924 0-52.425-42.499-94.924-94.924-94.923-52.425 0-94.924 42.499-94.923 94.923 0 52.425 42.499 94.924 94.923 94.924z" data-fill-palette-color="accent" fill="#ca3433" stroke="transparent"></path><ellipse rx="109.53597011538908" ry="109.53597011538908" cx="110.64239405594856" cy="110.64239405594856" fill="#ca3433" stroke="transparent" stroke-width="0" fill-opacity="1" data-fill-palette-color="accent"></ellipse></g><g transform="matrix(1,0,0,1,65.65843081904532,52.16324184797435)"><svg viewBox="0 0 89.96792647380649 116.95830441594842" height="116.95830441594842" width="89.96792647380649"><g><svg xmlns="http://www.w3.org/2000/svg" xmlns:xlink="http://www.w3.org/1999/xlink" version="1.1" x="0" y="0" viewBox="24.5 17.5 50 65" style="enable-background:new 0 0 100 100;" xml:space="preserve" height="116.95830441594842" width="89.96792647380649" class="icon-cg-0" data-fill-palette-color="quaternary" id="cg-0"><g fill="#ffffff" data-fill-palette-color="quaternary"><path d="M49.5 17.5c-13.8 0-25 11.3-25 25.2 0 13.1 20.5 35.1 22.8 37.5l2.2 2.3 2.2-2.2c2.3-2.5 22.8-24.5 22.8-37.6C74.5 28.8 63.3 17.5 49.5 17.5zM49.5 73.7c-6.8-7.6-19-22.9-19-31.1 0-10.6 8.5-19.1 19-19.1s19 8.6 19 19.1C68.5 50.8 56.3 66.1 49.5 73.7z" fill="#ffffff" data-fill-palette-color="quaternary"></path><path d="M49.5 28.8c-6.5 0-11.7 5.2-11.7 11.8 0 6.5 5.2 11.8 11.7 11.8s11.7-5.2 11.7-11.8C61.2 34 56 28.8 49.5 28.8zM49.5 46.3c-3.1 0-5.7-2.6-5.7-5.7 0-3.1 2.6-5.7 5.7-5.7s5.7 2.6 5.7 5.7C55.2 43.7 52.6 46.3 49.5 46.3z" fill="#ffffff" data-fill-palette-color="quaternary"></path></g></svg></g></svg></g></svg></g></svg></g><g></g></svg></g><defs></defs></svg><rect width="204.59422559175547" height="247.2" fill="none" stroke="none" visibility="hidden"></rect></g></svg></g></svg>